<svg width="79" height="35" viewBox="0 0 79 35" fill="none" xmlns="http://www.w3.org/2000/svg">
<path d="M22.056 35H11.88C8.04 35 5.256 34.264 3.528 32.792C1.832 31.288 0.984 28.856 0.984 25.496V0.823999H7.656V25.496C7.656 26.84 7.96 27.768 8.568 28.28C9.176 28.792 10.28 29.048 11.88 29.048H22.056V35ZM48.4466 35H38.2706C34.4306 35 31.6466 34.264 29.9186 32.792C28.2226 31.288 27.3746 28.856 27.3746 25.496V0.823999H34.0466V25.496C34.0466 26.84 34.3506 27.768 34.9586 28.28C35.5666 28.792 36.6706 29.048 38.2706 29.048H48.4466V35ZM75.3173 3.8C77.3013 5.752 78.2933 8.632 78.2933 12.44C78.2933 16.248 77.3013 19.144 75.3173 21.128C73.3653 23.08 70.5973 24.056 67.0133 24.056H60.4373V35H53.7653V0.823999H67.0133C70.5973 0.823999 73.3653 1.816 75.3173 3.8ZM71.6213 12.44C71.6213 8.664 69.9733 6.776 66.6773 6.776H60.4373V18.056H66.6773C68.2773 18.056 69.4933 17.624 70.3253 16.76C71.1893 15.896 71.6213 14.456 71.6213 12.44Z" fill="#111111"/>
</svg>
