<svg width="140" height="140" viewBox="0 0 140 140" fill="none" xmlns="http://www.w3.org/2000/svg">
<path d="M69.3655 99.931L62.17 107.126C59.4547 109.842 56.9657 111.29 54.7029 111.471C52.4402 111.607 50.1209 110.487 47.745 108.111L30.2993 90.665L35.0171 85.9472L52.4628 103.393C53.4132 104.343 54.2843 104.785 55.0763 104.717C55.8682 104.649 56.8299 104.049 57.9613 102.918L65.1568 95.7223L69.3655 99.931ZM88.0265 81.27L80.831 88.4655C78.1157 91.1808 75.6267 92.6289 73.3639 92.81C71.1012 92.9457 68.7819 91.8257 66.406 89.4498L48.9603 72.004L53.6781 67.2862L71.1238 84.732C72.0742 85.6823 72.9453 86.1236 73.7373 86.0557C74.5292 85.9878 75.4909 85.3882 76.6223 84.2568L83.8178 77.0613L88.0265 81.27ZM84.9652 40.2078C87.7483 40.1852 90.4862 41.5202 93.1789 44.2129C95.8716 46.9056 97.2179 49.6548 97.2179 52.4606C97.2179 55.2211 95.9508 57.8685 93.4165 60.4028L88.7666 65.0527L96.5051 72.7913L91.7873 77.5091L67.6212 53.3431L76.989 43.9753C79.5233 41.441 82.182 40.1852 84.9652 40.2078ZM88.4611 48.9307C85.7911 46.2607 83.2907 46.091 80.9601 48.4216L76.5478 52.8339L84.5239 60.8101L88.9363 56.3978C90.0676 55.2664 90.622 54.1011 90.5994 52.9018C90.5994 51.6799 89.8866 50.3562 88.4611 48.9307Z" fill="#145BA8"/>
</svg>
