<svg width="86" height="86" viewBox="0 0 86 86" fill="none" xmlns="http://www.w3.org/2000/svg">
<path d="M51.1562 36.0718C55.0942 38.3454 57.0632 39.4822 57.724 40.9663C58.3003 42.2609 58.3003 43.7392 57.724 45.0337C57.0632 46.5178 55.0942 47.6546 51.1563 49.9282L44.9219 53.5276C40.9839 55.8012 39.0149 56.938 37.3992 56.7682C35.99 56.6201 34.7097 55.8809 33.8768 54.7345C32.9219 53.4202 32.9219 51.1466 32.9219 46.5994L32.9219 39.4006C32.9219 34.8534 32.9219 32.5798 33.8768 31.2655C34.7097 30.1191 35.99 29.3799 37.3992 29.2318C39.0149 29.062 40.9839 30.1988 44.9219 32.4724L51.1562 36.0718Z" fill="#FBFBFB"/>
<circle cx="43" cy="43" r="42" stroke="#FBFBFB" stroke-width="2"/>
</svg>
